<svg xmlns="http://www.w3.org/2000/svg" xmlns:xlink="http://www.w3.org/1999/xlink" width="212.051" height="34.663" viewBox="0 0 212.051 34.663">
  <defs>
    <radialGradient id="radial-gradient" cx="0.5" cy="0.5" r="0.499" gradientTransform="translate(-0.001)" gradientUnits="objectBoundingBox">
      <stop offset="0" stop-color="#f3866b"/>
      <stop offset="0.354" stop-color="#f15c3f"/>
      <stop offset="0.544" stop-color="#c53a2a"/>
      <stop offset="0.74" stop-color="#9e1c18"/>
      <stop offset="0.897" stop-color="#860a0d"/>
      <stop offset="0.994" stop-color="#7e0409"/>
    </radialGradient>
    <radialGradient id="radial-gradient-2" cx="0.489" cy="0.141" r="0.491" gradientTransform="translate(-0.001)" gradientUnits="objectBoundingBox">
      <stop offset="0" stop-color="#fff"/>
      <stop offset="0.719" stop-color="#be0b0c"/>
    </radialGradient>
    <radialGradient id="radial-gradient-3" cx="0.511" cy="0.793" r="0.466" gradientTransform="translate(-0.001)" gradientUnits="objectBoundingBox">
      <stop offset="0" stop-color="#bd1209"/>
      <stop offset="1" stop-color="#fb8768"/>
    </radialGradient>
  </defs>
  <g id="Group_30" data-name="Group 30" transform="translate(-315.46 -184.438)">
    <path id="Path_51" data-name="Path 51" d="M375.546,211.552a4.567,4.567,0,0,1-.786,2.555,7.092,7.092,0,0,1-2.145,2.083,11.5,11.5,0,0,1-3.223,1.4,14.953,14.953,0,0,1-4.01.515,12.912,12.912,0,0,1-1.337-.075c-.462-.051-.966-.111-1.512-.184l1.05-2.424c.35.047.67.086.957.106s.478.039.555.039a6.525,6.525,0,0,0,4.066-1.122,3.4,3.4,0,0,0,1.454-2.8v-1.432a20.438,20.438,0,0,1-2.534.661,14.038,14.038,0,0,1-6.518-.277,11.682,11.682,0,0,1-3.2-1.438,7.661,7.661,0,0,1-2.184-2.117,4.516,4.516,0,0,1-.812-2.545v-5.635a4.4,4.4,0,0,1,.812-2.545,7.713,7.713,0,0,1,2.179-2.064,11.752,11.752,0,0,1,3.2-1.4,14.178,14.178,0,0,1,3.868-.514,15,15,0,0,1,4.012.513,11.62,11.62,0,0,1,3.226,1.4,7.288,7.288,0,0,1,2.156,2.06,4.525,4.525,0,0,1,.78,2.542Zm-4.931-12.663a3.747,3.747,0,0,0-1.225-2.874,5.3,5.3,0,0,0-3.731-1.148,5.991,5.991,0,0,0-3.937,1.148,3.583,3.583,0,0,0-1.372,2.874V204.5a3.788,3.788,0,0,0,1.315,2.9,6.709,6.709,0,0,0,7.641,0,3.8,3.8,0,0,0,1.309-2.9Z" fill="#fff"/>
    <path id="Path_52" data-name="Path 52" d="M378.1,197.225a4.385,4.385,0,0,1,1.278-2.3,7.61,7.61,0,0,1,2.387-1.506,13.677,13.677,0,0,1,2.933-.829,17.01,17.01,0,0,1,2.819-.255,12.987,12.987,0,0,1,7.17,1.693,5.229,5.229,0,0,1,2.583,4.574v6.964a3.358,3.358,0,0,1-.842,2.189,7.492,7.492,0,0,1-2.269,1.771,13.323,13.323,0,0,1-3.319,1.18,17.762,17.762,0,0,1-3.922.424,15.977,15.977,0,0,1-3.926-.461,11.8,11.8,0,0,1-3.139-1.236,6.784,6.784,0,0,1-2.067-1.8,3.621,3.621,0,0,1-.756-2.175,4.38,4.38,0,0,1,2.535-3.945,19.722,19.722,0,0,1,6.835-2.066q.7-.111,1.69-.276a15.224,15.224,0,0,0,1.893-.444,6.663,6.663,0,0,0,1.573-.7,1.219,1.219,0,0,0,.67-1.014c0-.742-.505-1.28-1.511-1.625a9.993,9.993,0,0,0-3.256-.518,6.992,6.992,0,0,0-1.424.166,7.578,7.578,0,0,0-1.511.5,4.6,4.6,0,0,0-1.249.827,2.079,2.079,0,0,0-.642,1.165Zm14.18,3.7a21.738,21.738,0,0,1-2.506.7q-1.339.294-2.741.517a9.959,9.959,0,0,0-3.526,1.219,2.487,2.487,0,0,0-1.487,2.064,2.083,2.083,0,0,0,.375,1.16,3.672,3.672,0,0,0,1.022,1.015,5.506,5.506,0,0,0,1.544.723,6.824,6.824,0,0,0,1.953.272,9.017,9.017,0,0,0,2.1-.238,6.867,6.867,0,0,0,1.724-.645,3.476,3.476,0,0,0,1.135-.961,1.94,1.94,0,0,0,.406-1.18Z" fill="#fff"/>
    <path id="Path_53" data-name="Path 53" d="M399.293,210.9v-25h5.046v25Z" fill="#fff"/>
    <path id="Path_54" data-name="Path 54" d="M406.646,210.9v-25h5.044v25Z" fill="#fff"/>
    <path id="Path_55" data-name="Path 55" d="M433.68,204.844a5.374,5.374,0,0,1-.991,2.464,7.978,7.978,0,0,1-2.12,2,10.684,10.684,0,0,1-3.082,1.341,14.674,14.674,0,0,1-3.81.475,14.348,14.348,0,0,1-3.927-.518,11.16,11.16,0,0,1-3.168-1.4,7.451,7.451,0,0,1-2.125-2.065,4.5,4.5,0,0,1-.783-2.542v-5.675a4.525,4.525,0,0,1,.783-2.526,7.544,7.544,0,0,1,2.125-2.1,11.227,11.227,0,0,1,3.2-1.438,15.048,15.048,0,0,1,7.939,0,11.236,11.236,0,0,1,3.169,1.438,7.156,7.156,0,0,1,2.093,2.1,4.64,4.64,0,0,1,.757,2.524v4.419H418.6V204.6a3.7,3.7,0,0,0,1.224,2.88,5.6,5.6,0,0,0,3.847,1.108,5.9,5.9,0,0,0,3.7-1.024,4.036,4.036,0,0,0,1.549-2.721Zm-9.944-10A5.559,5.559,0,0,0,419.857,196a3.85,3.85,0,0,0-1.254,2.959v1.734h10.15V198.96A3.848,3.848,0,0,0,427.5,196,5.372,5.372,0,0,0,423.736,194.843Z" fill="#fff"/>
    <path id="Path_56" data-name="Path 56" d="M447.821,195.01a12.443,12.443,0,0,0-1.629-.112,6.052,6.052,0,0,0-3.716,1.122,3.531,3.531,0,0,0-1.514,2.97V210.9h-5.044V198.96a4.547,4.547,0,0,1,.81-2.6,7.689,7.689,0,0,1,2.205-2.1,11.879,11.879,0,0,1,3.22-1.419,14.224,14.224,0,0,1,3.864-.513,15.866,15.866,0,0,1,2.906.33Z" fill="#fff"/>
    <path id="Path_57" data-name="Path 57" d="M449,197.225a4.347,4.347,0,0,1,1.275-2.3,7.593,7.593,0,0,1,2.386-1.506,13.72,13.72,0,0,1,2.936-.829,16.947,16.947,0,0,1,2.816-.255,13,13,0,0,1,7.173,1.693,5.234,5.234,0,0,1,2.582,4.574v6.964a3.355,3.355,0,0,1-.844,2.189,7.426,7.426,0,0,1-2.268,1.771,13.343,13.343,0,0,1-3.316,1.18,17.831,17.831,0,0,1-3.926.424,15.98,15.98,0,0,1-3.925-.461,11.786,11.786,0,0,1-3.137-1.236,6.761,6.761,0,0,1-2.07-1.8,3.633,3.633,0,0,1-.755-2.175,4.38,4.38,0,0,1,2.532-3.945,19.753,19.753,0,0,1,6.84-2.066c.468-.074,1.027-.165,1.687-.276a15.562,15.562,0,0,0,1.9-.444,6.722,6.722,0,0,0,1.569-.7,1.214,1.214,0,0,0,.669-1.014c0-.742-.5-1.28-1.511-1.625a10,10,0,0,0-3.255-.518,6.991,6.991,0,0,0-1.423.166,7.515,7.515,0,0,0-1.511.5,4.663,4.663,0,0,0-1.25.827,2.083,2.083,0,0,0-.641,1.165Zm14.177,3.7a21.349,21.349,0,0,1-2.506.7q-1.341.294-2.74.517a9.949,9.949,0,0,0-3.528,1.219,2.488,2.488,0,0,0-1.486,2.064,2.07,2.07,0,0,0,.377,1.16,3.681,3.681,0,0,0,1.021,1.015,5.486,5.486,0,0,0,1.547.723,6.773,6.773,0,0,0,1.95.272,8.981,8.981,0,0,0,2.1-.238,6.89,6.89,0,0,0,1.725-.645,3.482,3.482,0,0,0,1.134-.961,1.928,1.928,0,0,0,.407-1.18Z" fill="#fff"/>
    <path id="Path_58" data-name="Path 58" d="M485.164,210.9v-11.87A4.038,4.038,0,0,0,484,196.079a5.13,5.13,0,0,0-3.779-1.181,5.793,5.793,0,0,0-3.954,1.181,3.77,3.77,0,0,0-1.339,2.949V210.9H470V199a4.58,4.58,0,0,1,.81-2.577,7.52,7.52,0,0,1,2.21-2.119,12.126,12.126,0,0,1,3.253-1.438,14.191,14.191,0,0,1,3.951-.533,13.136,13.136,0,0,1,4.151.625,11.391,11.391,0,0,1,3.338,1.729,11.18,11.18,0,0,1,3.457-1.71,14.678,14.678,0,0,1,8.22-.111,11.235,11.235,0,0,1,3.194,1.438,7.26,7.26,0,0,1,2.116,2.119,4.658,4.658,0,0,1,.789,2.577v11.9H500.5v-11.87a3.9,3.9,0,0,0-1.249-2.933,5.323,5.323,0,0,0-3.809-1.2,5.676,5.676,0,0,0-3.923,1.181,3.791,3.791,0,0,0-1.312,2.949V210.9Z" fill="#fff"/>
    <path id="Path_59" data-name="Path 59" d="M508.343,197.225a4.353,4.353,0,0,1,1.279-2.3A7.569,7.569,0,0,1,512,193.417a13.712,13.712,0,0,1,2.935-.829,17.053,17.053,0,0,1,2.817-.255,13.01,13.01,0,0,1,7.175,1.693,5.239,5.239,0,0,1,2.581,4.574v6.964a3.361,3.361,0,0,1-.844,2.189,7.345,7.345,0,0,1-2.271,1.771,13.251,13.251,0,0,1-3.31,1.18,17.831,17.831,0,0,1-3.926.424,15.978,15.978,0,0,1-3.929-.461,11.876,11.876,0,0,1-3.138-1.236,6.754,6.754,0,0,1-2.063-1.8,3.615,3.615,0,0,1-.757-2.175,4.385,4.385,0,0,1,2.528-3.945,19.757,19.757,0,0,1,6.843-2.066c.464-.074,1.028-.165,1.688-.276a15.351,15.351,0,0,0,1.893-.444,6.515,6.515,0,0,0,1.568-.7,1.211,1.211,0,0,0,.672-1.014c0-.742-.506-1.28-1.514-1.625a9.97,9.97,0,0,0-3.253-.518,7,7,0,0,0-1.424.166,7.569,7.569,0,0,0-1.51.5,4.626,4.626,0,0,0-1.249.827,2.054,2.054,0,0,0-.638,1.165Zm14.182,3.7a21.781,21.781,0,0,1-2.508.7q-1.344.294-2.745.517a10,10,0,0,0-3.529,1.219,2.491,2.491,0,0,0-1.484,2.064,2.09,2.09,0,0,0,.38,1.16,3.691,3.691,0,0,0,1.02,1.015,5.414,5.414,0,0,0,1.546.723,6.8,6.8,0,0,0,1.955.272,9.008,9.008,0,0,0,2.1-.238,6.734,6.734,0,0,0,1.72-.645,3.419,3.419,0,0,0,1.136-.961,1.96,1.96,0,0,0,.412-1.18Z" fill="#fff"/>
    <g id="Group_29" data-name="Group 29" opacity="0.91">
      <path id="Path_60" data-name="Path 60" d="M350.026,203.464,340.453,199l4.473-9.586a17.191,17.191,0,0,0-3.383-2.6l-2.926-1.364a17.332,17.332,0,0,0-20.625,7.3l-1.619,3.481a17.326,17.326,0,0,0,7.505,20.4l3.254,1.519a17.326,17.326,0,0,0,20.768-7.927l1.081-2.319A17.261,17.261,0,0,0,350.026,203.464Zm-14.4,5.969-10.416-4.857,4.859-10.414,10.412,4.857Z" fill="none"/>
      <path id="Path_61" data-name="Path 61" d="M348.912,203.515l-8.947-4.172,4.18-8.959a16.1,16.1,0,0,0-3.161-2.43l-2.735-1.274a16.2,16.2,0,0,0-19.275,6.82l-1.514,3.253a16.191,16.191,0,0,0,7.015,19.068l3.041,1.42a16.191,16.191,0,0,0,19.409-7.409l1.01-2.167A16.142,16.142,0,0,0,348.912,203.515Zm-13.457,5.578-9.734-4.539,4.541-9.733,9.73,4.539Z" fill="#fff"/>
      <g id="Group_24" data-name="Group 24" style="mix-blend-mode: multiply;isolation: isolate">
        <path id="Path_62" data-name="Path 62" d="M348.912,203.515l-8.947-4.172,4.18-8.959a16.1,16.1,0,0,0-3.161-2.43l-2.735-1.274a16.2,16.2,0,0,0-19.275,6.82l-1.514,3.253a16.191,16.191,0,0,0,7.015,19.068l3.041,1.42a16.191,16.191,0,0,0,19.409-7.409l1.01-2.167A16.142,16.142,0,0,0,348.912,203.515Zm-13.457,5.578-9.734-4.539,4.541-9.733,9.73,4.539Z" fill="url(#radial-gradient)"/>
      </g>
      <g id="Group_26" data-name="Group 26" style="mix-blend-mode: overlay;isolation: isolate">
        <g id="Group_25" data-name="Group 25">
          <path id="Path_63" data-name="Path 63" d="M348.912,203.515l-8.947-4.172,4.18-8.959a16.1,16.1,0,0,0-3.161-2.43l-2.735-1.274a16.2,16.2,0,0,0-19.275,6.82l-1.514,3.253a16.191,16.191,0,0,0,7.015,19.068l3.041,1.42a16.191,16.191,0,0,0,19.409-7.409l1.01-2.167A16.142,16.142,0,0,0,348.912,203.515Zm-13.457,5.578-9.734-4.539,4.541-9.733,9.73,4.539Z" fill="url(#radial-gradient-2)"/>
        </g>
      </g>
      <g id="Group_28" data-name="Group 28" opacity="0.74">
        <g id="Group_27" data-name="Group 27">
          <path id="Path_64" data-name="Path 64" d="M348.912,203.515l-8.947-4.172,4.18-8.959a16.1,16.1,0,0,0-3.161-2.43l-2.735-1.274a16.2,16.2,0,0,0-19.275,6.82l-1.514,3.253a16.191,16.191,0,0,0,7.015,19.068l3.041,1.42a16.191,16.191,0,0,0,19.409-7.409l1.01-2.167A16.142,16.142,0,0,0,348.912,203.515Zm-13.457,5.578-9.734-4.539,4.541-9.733,9.73,4.539Z" fill="url(#radial-gradient-3)"/>
        </g>
      </g>
    </g>
  </g>
</svg>
